<svg xmlns="http://www.w3.org/2000/svg" viewBox="0 0 500 500"><g id="freepik--Shadow--inject-35"><ellipse id="freepik--path--inject-35" cx="250" cy="416.24" rx="193.89" ry="11.32" style="fill:#f5f5f5"></ellipse></g><g id="freepik--Connection--inject-35"><path d="M114,181.89a1,1,0,0,1-1-1h0a1,1,0,0,1,1-1h0a1,1,0,0,1,1,1.05h0a1,1,0,0,1-1,.95h0Zm279.8-.28a1,1,0,0,1-.95-1h0a1,1,0,0,1,1-1h0a1,1,0,0,1,1,1h0a1,1,0,0,1-1,1h-.05ZM114.28,175.9a1,1,0,0,1-1-1.05h0a1,1,0,0,1,1.05-.95h0a1,1,0,0,1,.95,1h0a1,1,0,0,1-1,1h0Zm279.8-.28a1,1,0,0,1-1-1h0a1,1,0,0,1,1.05-1h0a1,1,0,0,1,.95,1h0a1,1,0,0,1-1,1h0ZM114.54,169.9a1,1,0,0,1-1-1h0a1,1,0,0,1,1-1h0a1,1,0,0,1,1,1h0a1,1,0,0,1-1,1h0Zm279.8-.27a1,1,0,0,1-.95-1h0a1,1,0,0,1,1-1h0a1,1,0,0,1,1,1h0a1,1,0,0,1-1,1h-.05Zm-5.94-2a1,1,0,0,1,1-1h0a1,1,0,0,1,1,1h0a1,1,0,0,1-1,1h0A1,1,0,0,1,388.4,167.66Zm-6,0a1,1,0,0,1,1-1h0a1,1,0,0,1,1,1h0a1,1,0,0,1-1,1h0A1,1,0,0,1,382.4,167.66Zm-6,0a1,1,0,0,1,1-1h0a1,1,0,0,1,1,1h0a1,1,0,0,1-1,1h0A1,1,0,0,1,376.4,167.66Zm-6,0a1,1,0,0,1,1-1h0a1,1,0,0,1,1,1h0a1,1,0,0,1-1,1h0A1,1,0,0,1,370.4,167.66Zm-6,0a1,1,0,0,1,1-1h0a1,1,0,0,1,1,1h0a1,1,0,0,1-1,1h0A1,1,0,0,1,364.4,167.66Zm-6,0a1,1,0,0,1,1-1h0a1,1,0,0,1,1,1h0a1,1,0,0,1-1,1h0A1,1,0,0,1,358.4,167.66Zm-6,0a1,1,0,0,1,1-1h0a1,1,0,0,1,1,1h0a1,1,0,0,1-1,1h0A1,1,0,0,1,352.4,167.66Zm-6,0a1,1,0,0,1,1-1h0a1,1,0,0,1,1,1h0a1,1,0,0,1-1,1h0A1,1,0,0,1,346.4,167.66Zm-6,0a1,1,0,0,1,1-1h0a1,1,0,0,1,1,1h0a1,1,0,0,1-1,1h0A1,1,0,0,1,340.4,167.66Zm-6,0a1,1,0,0,1,1-1h0a1,1,0,0,1,1,1h0a1,1,0,0,1-1,1h0A1,1,0,0,1,334.4,167.66Zm-6,0a1,1,0,0,1,1-1h0a1,1,0,0,1,1,1h0a1,1,0,0,1-1,1h0A1,1,0,0,1,328.4,167.66Zm-6,0a1,1,0,0,1,1-1h0a1,1,0,0,1,1,1h0a1,1,0,0,1-1,1h0A1,1,0,0,1,322.4,167.66Zm-6,0a1,1,0,0,1,1-1h0a1,1,0,0,1,1,1h0a1,1,0,0,1-1,1h0A1,1,0,0,1,316.4,167.66Zm-6,0a1,1,0,0,1,1-1h0a1,1,0,0,1,1,1h0a1,1,0,0,1-1,1h0A1,1,0,0,1,310.4,167.66Zm-6,0a1,1,0,0,1,1-1h0a1,1,0,0,1,1,1h0a1,1,0,0,1-1,1h0A1,1,0,0,1,304.4,167.66Zm-6,0a1,1,0,0,1,1-1h0a1,1,0,0,1,1,1h0a1,1,0,0,1-1,1h0A1,1,0,0,1,298.4,167.66Zm-6,0a1,1,0,0,1,1-1h0a1,1,0,0,1,1,1h0a1,1,0,0,1-1,1h0A1,1,0,0,1,292.4,167.66Zm-6,0a1,1,0,0,1,1-1h0a1,1,0,0,1,1,1h0a1,1,0,0,1-1,1h0A1,1,0,0,1,286.4,167.66Zm-6,0a1,1,0,0,1,1-1h0a1,1,0,0,1,1,1h0a1,1,0,0,1-1,1h0A1,1,0,0,1,280.4,167.66Zm-6,0a1,1,0,0,1,1-1h0a1,1,0,0,1,1,1h0a1,1,0,0,1-1,1h0A1,1,0,0,1,274.4,167.66Zm-6,0a1,1,0,0,1,1-1h0a1,1,0,0,1,1,1h0a1,1,0,0,1-1,1h0A1,1,0,0,1,268.4,167.66Zm-6,0a1,1,0,0,1,1-1h0a1,1,0,0,1,1,1h0a1,1,0,0,1-1,1h0A1,1,0,0,1,262.4,167.66Zm-6,0a1,1,0,0,1,1-1h0a1,1,0,0,1,1,1h0a1,1,0,0,1-1,1h0A1,1,0,0,1,256.4,167.66Zm-6,0a1,1,0,0,1,1-1h0a1,1,0,0,1,1,1h0a1,1,0,0,1-1,1h0A1,1,0,0,1,250.4,167.66Zm-6,0a1,1,0,0,1,1-1h0a1,1,0,0,1,1,1h0a1,1,0,0,1-1,1h0A1,1,0,0,1,244.4,167.66Zm-6,0a1,1,0,0,1,1-1h0a1,1,0,0,1,1,1h0a1,1,0,0,1-1,1h0A1,1,0,0,1,238.4,167.66Zm-6,0a1,1,0,0,1,1-1h0a1,1,0,0,1,1,1h0a1,1,0,0,1-1,1h0A1,1,0,0,1,232.4,167.66Zm-6,0a1,1,0,0,1,1-1h0a1,1,0,0,1,1,1h0a1,1,0,0,1-1,1h0A1,1,0,0,1,226.4,167.66Zm-6,0a1,1,0,0,1,1-1h0a1,1,0,0,1,1,1h0a1,1,0,0,1-1,1h0A1,1,0,0,1,220.4,167.66Zm-6,0a1,1,0,0,1,1-1h0a1,1,0,0,1,1,1h0a1,1,0,0,1-1,1h0A1,1,0,0,1,214.4,167.66Zm-6,0a1,1,0,0,1,1-1h0a1,1,0,0,1,1,1h0a1,1,0,0,1-1,1h0A1,1,0,0,1,208.4,167.66Zm-6,0a1,1,0,0,1,1-1h0a1,1,0,0,1,1,1h0a1,1,0,0,1-1,1h0A1,1,0,0,1,202.4,167.66Zm-6,0a1,1,0,0,1,1-1h0a1,1,0,0,1,1,1h0a1,1,0,0,1-1,1h0A1,1,0,0,1,196.4,167.66Zm-6,0a1,1,0,0,1,1-1h0a1,1,0,0,1,1,1h0a1,1,0,0,1-1,1h0A1,1,0,0,1,190.4,167.66Zm-6,0a1,1,0,0,1,1-1h0a1,1,0,0,1,1,1h0a1,1,0,0,1-1,1h0A1,1,0,0,1,184.4,167.66Zm-6,0a1,1,0,0,1,1-1h0a1,1,0,0,1,1,1h0a1,1,0,0,1-1,1h0A1,1,0,0,1,178.4,167.66Zm-6,0a1,1,0,0,1,1-1h0a1,1,0,0,1,1,1h0a1,1,0,0,1-1,1h0A1,1,0,0,1,172.4,167.66Zm-6,0a1,1,0,0,1,1-1h0a1,1,0,0,1,1,1h0a1,1,0,0,1-1,1h0A1,1,0,0,1,166.4,167.66Zm-6,0a1,1,0,0,1,1-1h0a1,1,0,0,1,1,1h0a1,1,0,0,1-1,1h0A1,1,0,0,1,160.4,167.66Zm-6,0a1,1,0,0,1,1-1h0a1,1,0,0,1,1,1h0a1,1,0,0,1-1,1h0A1,1,0,0,1,154.4,167.66Zm-6,0a1,1,0,0,1,1-1h0a1,1,0,0,1,1,1h0a1,1,0,0,1-1,1h0A1,1,0,0,1,148.4,167.66Zm-6,0a1,1,0,0,1,1-1h0a1,1,0,0,1,1,1h0a1,1,0,0,1-1,1h0A1,1,0,0,1,142.4,167.66Zm-6,0a1,1,0,0,1,1-1h0a1,1,0,0,1,1,1h0a1,1,0,0,1-1,1h0A1,1,0,0,1,136.4,167.66Zm-6,0a1,1,0,0,1,1-1h0a1,1,0,0,1,1,1h0a1,1,0,0,1-1,1h0A1,1,0,0,1,130.4,167.66Zm-6,0a1,1,0,0,1,1-1h0a1,1,0,0,1,1,1h0a1,1,0,0,1-1,1h0A1,1,0,0,1,124.4,167.66Zm-6,0a1,1,0,0,1,1-1h0a1,1,0,0,1,1,1h0a1,1,0,0,1-1,1h0A1,1,0,0,1,118.4,167.66Z" style="fill:#184CC3"></path><path d="M254.9,223.13a1,1,0,0,1-1-1h0a1,1,0,0,1,1-1h0a1,1,0,0,1,1,1h0a1,1,0,0,1-1,1h0Zm.27-6a1,1,0,0,1-1-1h0a1,1,0,0,1,1-1h0a1,1,0,0,1,.95,1.05h0a1,1,0,0,1-1,.95h0Zm.26-6a1,1,0,0,1-1-1.05h0a1,1,0,0,1,1-.95h0a1,1,0,0,1,1,1h0a1,1,0,0,1-1,1h0Zm.27-6a1,1,0,0,1-1-1h0a1,1,0,0,1,1-1h0a1,1,0,0,1,1,1h0a1,1,0,0,1-1,1h0Zm.26-6a1,1,0,0,1-1-1h0a1,1,0,0,1,1.05-1h0a1,1,0,0,1,.95,1h0a1,1,0,0,1-1,1h0Zm.26-6a1,1,0,0,1-1-1h0a1,1,0,0,1,1-1h0a1,1,0,0,1,1,1h0a1,1,0,0,1-1,.95h0Zm.27-6a1,1,0,0,1-1-1h0a1,1,0,0,1,1-1h0a1,1,0,0,1,.95,1.05h0a1,1,0,0,1-1,.95h0Zm.26-6a1,1,0,0,1-.95-1.05h0a1,1,0,0,1,1-.95h0a1,1,0,0,1,1,1h0a1,1,0,0,1-1,1h-.05Zm.27-6a1,1,0,0,1-1-1h0a1,1,0,0,1,1.05-1h0a1,1,0,0,1,.95,1h0a1,1,0,0,1-1,1h0Z" style="fill:#184CC3"></path></g><g id="freepik--Cloud--inject-35"><path d="M298.32,114.6a17.53,17.53,0,0,0-23.45-15.46,23.84,23.84,0,0,0-43.32,7.66l-.83,0a24.1,24.1,0,1,0,0,48.19h58.94a21.11,21.11,0,0,0,8.66-40.37Z" style="fill:#263238"></path><path d="M233.15,93.27l-.7-.71a27.8,27.8,0,0,1,4.33-3.47l.54.84A26.79,26.79,0,0,0,233.15,93.27Z" style="fill:#184CC3"></path><path d="M217.42,106.26l-.38-.93a27.42,27.42,0,0,1,8.61-2,27.11,27.11,0,0,1,4-7.56l.8.6A26,26,0,0,0,226.5,104l-.11.33-.34,0A26.35,26.35,0,0,0,217.42,106.26Z" style="fill:#184CC3"></path><path d="M295.08,114.6a17.53,17.53,0,0,0-23.45-15.46,23.84,23.84,0,0,0-43.32,7.66l-.83,0a24.1,24.1,0,0,0,0,48.19h58.94a21.11,21.11,0,0,0,8.66-40.37Z" style="fill:#184CC3"></path><path d="M256.3,123.19l-9.4-9.39a.82.82,0,0,0-1.17,0l-9.4,9.39a.83.83,0,0,0,.59,1.42h4a.84.84,0,0,1,.83.84v13.11a.83.83,0,0,0,.83.83h7.53a.83.83,0,0,0,.83-.83V125.45a.84.84,0,0,1,.83-.84h4A.83.83,0,0,0,256.3,123.19Z" style="fill:#fff"></path><path d="M254.62,129.75l9.4,9.4a.85.85,0,0,0,1.18,0l9.39-9.4a.83.83,0,0,0-.58-1.42h-4a.84.84,0,0,1-.84-.83V114.38a.83.83,0,0,0-.83-.83h-7.52a.84.84,0,0,0-.84.83V127.5a.83.83,0,0,1-.83.83h-4A.83.83,0,0,0,254.62,129.75Z" style="fill:#fff"></path></g><g id="freepik--Smartphone--inject-35"><path d="M413.3,288H369.91a3.08,3.08,0,0,1-3.09-3.24l3.83-86.92a3.42,3.42,0,0,1,3.38-3.23h43.39a3.08,3.08,0,0,1,3.1,3.23l-3.84,86.92A3.43,3.43,0,0,1,413.3,288Z" style="fill:#263238"></path><path d="M411.77,288H368.38a3.09,3.09,0,0,1-3.1-3.24l3.83-86.92a3.42,3.42,0,0,1,3.38-3.23h43.4a3.07,3.07,0,0,1,3.09,3.23l-3.83,86.92A3.43,3.43,0,0,1,411.77,288Z" style="fill:#184CC3"></path><path d="M393.17,286.16h-6a.72.72,0,0,1-.72-.76v-.19a.8.8,0,0,1,.79-.75h6a.71.71,0,0,1,.72.75v.19A.79.79,0,0,1,393.17,286.16Z" style="opacity:0.30000000000000004"></path><path d="M369.74,282.45a1.57,1.57,0,0,1-1.58-1.66l3.6-81.83a1.75,1.75,0,0,1,1.73-1.65h41.16a1.56,1.56,0,0,1,1.58,1.65l-3.6,81.83a1.75,1.75,0,0,1-1.73,1.66Z" style="fill:#fff;opacity:0.9"></path><path d="M387.44,252.79H381a1.18,1.18,0,0,1-1.18-1.23l.49-11.15a.18.18,0,0,0,0-.14.22.22,0,0,0-.13-.05H376.8a1.15,1.15,0,0,1-1.09-.73,1.21,1.21,0,0,1,.3-1.34l8.34-8a1.35,1.35,0,0,1,.89-.35,1.16,1.16,0,0,1,.82.37l7.64,8a1.18,1.18,0,0,1,.23,1.29,1.25,1.25,0,0,1-1.14.76h-3.38a.26.26,0,0,0-.24.23l-.49,11.16A1.26,1.26,0,0,1,387.44,252.79Zm-2.23-22a.25.25,0,0,0-.17.07l-8.34,8a.22.22,0,0,0-.06.25.15.15,0,0,0,.16.1h3.38a1.18,1.18,0,0,1,.85.36,1.15,1.15,0,0,1,.32.87l-.49,11.16a.22.22,0,0,0,.05.13.18.18,0,0,0,.13,0h6.4a.26.26,0,0,0,.24-.23l.49-11.15a1.26,1.26,0,0,1,1.24-1.19h3.38a.26.26,0,0,0,.22-.15.19.19,0,0,0,0-.21l-7.64-8A.17.17,0,0,0,385.21,230.81Z" style="fill:#184CC3"></path><path d="M399.8,252.79h0a1.15,1.15,0,0,1-.82-.36l-7.64-8a1.2,1.2,0,0,1-.23-1.3,1.25,1.25,0,0,1,1.14-.76h3.38a.25.25,0,0,0,.24-.23l.49-11.15a1.26,1.26,0,0,1,1.24-1.19H404a1.16,1.16,0,0,1,.85.36,1.19,1.19,0,0,1,.33.87l-.49,11.16a.16.16,0,0,0,0,.13.22.22,0,0,0,.13,0h3.38a1.15,1.15,0,0,1,1.09.74,1.19,1.19,0,0,1-.3,1.33l-8.34,8A1.26,1.26,0,0,1,399.8,252.79Zm-7.77-9,7.64,8s.05,0,.13,0a.25.25,0,0,0,.17-.07l8.34-8a.21.21,0,0,0,.06-.24.16.16,0,0,0-.16-.11h-3.38A1.18,1.18,0,0,1,404,243a1.15,1.15,0,0,1-.32-.87l.49-11.15a.18.18,0,0,0,0-.13.15.15,0,0,0-.13-.06h-6.4a.26.26,0,0,0-.24.23l-.49,11.16a1.26,1.26,0,0,1-1.24,1.18h-3.38a.26.26,0,0,0-.22.15.21.21,0,0,0,0,.22Z" style="fill:#184CC3"></path><polygon points="395.6 194.61 385.77 194.61 368.3 288 378.13 288 395.6 194.61" style="fill:#fff;opacity:0.2"></polygon><polygon points="406.88 194.61 404.42 194.61 386.96 288 389.42 288 406.88 194.61" style="fill:#fff;opacity:0.30000000000000004"></polygon><path d="M394.69,195.81a.59.59,0,0,1-.58.55.52.52,0,0,1-.52-.55.58.58,0,0,1,.57-.55A.53.53,0,0,1,394.69,195.81Z" style="opacity:0.30000000000000004"></path></g><g id="freepik--Notebook--inject-35"><path d="M343.13,348.35H177.66a3.82,3.82,0,0,1-3.85-4l4.76-108.14a4.27,4.27,0,0,1,4.21-4H348.26a3.84,3.84,0,0,1,3.85,4l-4.77,108.14A4.26,4.26,0,0,1,343.13,348.35Z" style="fill:#263238"></path><path d="M341.23,348.35H175.75a3.82,3.82,0,0,1-3.85-4l4.77-108.14a4.27,4.27,0,0,1,4.2-4H346.35a3.83,3.83,0,0,1,3.85,4l-4.77,108.14A4.26,4.26,0,0,1,341.23,348.35Z" style="fill:#184CC3"></path><path d="M343.06,350.11H177.58a4.26,4.26,0,0,0-4,2.77.93.93,0,0,0,.89,1.25H345.76a1,1,0,0,0,1-1.25A3.82,3.82,0,0,0,343.06,350.11Z" style="fill:#263238"></path><path d="M314,350.11H148.55a4.26,4.26,0,0,0-4,2.77.93.93,0,0,0,.88,1.25H316.73a1,1,0,0,0,1-1.25A3.82,3.82,0,0,0,314,350.11Z" style="fill:#184CC3"></path><path d="M246.15,352.37H216.22a1.9,1.9,0,0,0-1.58,1.76h32.94A1.7,1.7,0,0,0,246.15,352.37Z" style="fill:#fff;opacity:0.8"></path><path d="M180,342a1.51,1.51,0,0,1-1.52-1.59l4.42-100.3a1.69,1.69,0,0,1,1.66-1.59H342.15a1.52,1.52,0,0,1,1.52,1.59l-4.42,100.3a1.69,1.69,0,0,1-1.66,1.59Z" style="fill:#fff;opacity:0.9"></path><path d="M252.55,309.19H241.82a1.62,1.62,0,0,1-1.64-1.71l.83-18.71a.63.63,0,0,0-.18-.47.63.63,0,0,0-.46-.19h-5.66a1.61,1.61,0,0,1-1.52-1,1.71,1.71,0,0,1,.42-1.87l14-13.41a1.7,1.7,0,0,1,2.39,0l12.81,13.41a1.63,1.63,0,0,1,.31,1.8,1.73,1.73,0,0,1-1.6,1.07h-5.66a.75.75,0,0,0-.74.71l-.83,18.71A1.76,1.76,0,0,1,252.55,309.19Zm-3.74-36.86a.75.75,0,0,0-.51.21l-14,13.4a.72.72,0,0,0-.18.78.61.61,0,0,0,.59.39h5.66a1.64,1.64,0,0,1,1.19.5,1.62,1.62,0,0,1,.45,1.21l-.83,18.71a.62.62,0,0,0,.64.66h10.73a.75.75,0,0,0,.74-.71l.83-18.71a1.75,1.75,0,0,1,1.74-1.66h5.66a.73.73,0,0,0,.68-.46.64.64,0,0,0-.11-.72l-12.82-13.41A.62.62,0,0,0,248.81,272.33Z" style="fill:#184CC3"></path><path d="M273.29,309.19a1.64,1.64,0,0,1-1.19-.5l-12.81-13.41a1.65,1.65,0,0,1-.32-1.8,1.75,1.75,0,0,1,1.61-1.07h5.66a.75.75,0,0,0,.74-.71l.83-18.71a1.75,1.75,0,0,1,1.73-1.66h10.74a1.64,1.64,0,0,1,1.19.5,1.62,1.62,0,0,1,.45,1.21l-.83,18.71a.62.62,0,0,0,.17.47.67.67,0,0,0,.47.19h5.66a1.61,1.61,0,0,1,1.52,1,1.71,1.71,0,0,1-.42,1.87l-14,13.4A1.72,1.72,0,0,1,273.29,309.19ZM260,294.59,272.82,308a.71.71,0,0,0,1,0l14-13.4a.71.71,0,0,0,.19-.78.61.61,0,0,0-.59-.39h-5.66a1.64,1.64,0,0,1-1.19-.5,1.62,1.62,0,0,1-.45-1.21l.83-18.71a.67.67,0,0,0-.18-.47.63.63,0,0,0-.46-.19H269.54a.74.74,0,0,0-.73.71L268,291.75a1.76,1.76,0,0,1-1.74,1.66h-5.66a.76.76,0,0,0-.69.46.66.66,0,0,0,.12.72Z" style="fill:#184CC3"></path><polygon points="236.69 232.16 210.66 232.16 188.93 348.36 214.96 348.36 236.69 232.16" style="fill:#fff;opacity:0.2"></polygon><polygon points="246.32 232.16 243.26 232.16 221.53 348.36 224.59 348.36 246.32 232.16" style="fill:#fff;opacity:0.2"></polygon><polygon points="333.84 232.16 321.85 232.16 300.12 348.36 312.12 348.36 333.84 232.16" style="fill:#fff;opacity:0.30000000000000004"></polygon><path d="M264.64,235.52a1.24,1.24,0,0,1-1.23,1.17,1.11,1.11,0,0,1-1.12-1.17,1.25,1.25,0,0,1,1.23-1.18A1.12,1.12,0,0,1,264.64,235.52Z" style="opacity:0.30000000000000004"></path></g><g id="freepik--Tablet--inject-35"><path d="M150.62,310.8H70.18a3.84,3.84,0,0,1-3.85-4L71.1,198.63a4.26,4.26,0,0,1,4.21-4h80.44a3.84,3.84,0,0,1,3.85,4l-4.77,108.14A4.26,4.26,0,0,1,150.62,310.8Z" style="fill:#263238"></path><path d="M148.72,310.8H68.28a3.83,3.83,0,0,1-3.85-4L69.2,198.63a4.25,4.25,0,0,1,4.2-4h80.44a3.83,3.83,0,0,1,3.85,4l-4.77,108.14A4.26,4.26,0,0,1,148.72,310.8Z" style="fill:#184CC3"></path><path d="M112.35,308.51h-7.5a.89.89,0,0,1-.9-.94v-.24a1,1,0,0,1,1-.94h7.5a.89.89,0,0,1,.89.94v.24A1,1,0,0,1,112.35,308.51Z" style="opacity:0.30000000000000004"></path><path d="M70,303.9a2,2,0,0,1-2-2.06L72.49,200A2.18,2.18,0,0,1,74.64,198H152.3a2,2,0,0,1,2,2.06l-4.49,101.82a2.18,2.18,0,0,1-2.15,2.06Z" style="fill:#fff;opacity:0.9"></path><path d="M103.71,267.55H94.32A1.49,1.49,0,0,1,92.83,266l.72-16.36a.5.5,0,0,0-.13-.37.53.53,0,0,0-.36-.15h-5a1.46,1.46,0,0,1-1.39-.93,1.54,1.54,0,0,1,.38-1.7l12.24-11.72a1.59,1.59,0,0,1,1.13-.45,1.54,1.54,0,0,1,1,.46l11.2,11.72a1.52,1.52,0,0,1,.29,1.65,1.6,1.6,0,0,1-1.46,1h-5a.61.61,0,0,0-.59.56L105.29,266A1.61,1.61,0,0,1,103.71,267.55Zm-3.28-32.24a.58.58,0,0,0-.4.17L87.79,247.2a.56.56,0,0,0-.14.61.46.46,0,0,0,.46.3h5a1.47,1.47,0,0,1,1.08.46,1.5,1.5,0,0,1,.41,1.1L93.83,266a.5.5,0,0,0,.13.37.51.51,0,0,0,.36.15h9.39a.6.6,0,0,0,.58-.56l.72-16.36a1.61,1.61,0,0,1,1.59-1.52h5a.6.6,0,0,0,.54-.36.51.51,0,0,0-.09-.56l-11.21-11.73a.51.51,0,0,0-.34-.15Z" style="fill:#184CC3"></path><path d="M121.84,267.55h0a1.54,1.54,0,0,1-1-.46l-11.2-11.72a1.52,1.52,0,0,1-.29-1.65,1.6,1.6,0,0,1,1.46-1h5a.6.6,0,0,0,.59-.56l.72-16.36a1.61,1.61,0,0,1,1.58-1.52H128a1.49,1.49,0,0,1,1.08.46,1.47,1.47,0,0,1,.41,1.11l-.72,16.35a.5.5,0,0,0,.13.37.51.51,0,0,0,.36.15h5a1.45,1.45,0,0,1,1.38.93,1.54,1.54,0,0,1-.38,1.7L122.93,267.1A1.57,1.57,0,0,1,121.84,267.55Zm-11.12-13.8a.6.6,0,0,0-.54.36.53.53,0,0,0,.09.57l11.21,11.72a.53.53,0,0,0,.34.15.71.71,0,0,0,.42-.17l12.24-11.72a.56.56,0,0,0,.14-.61.46.46,0,0,0-.45-.3h-5a1.48,1.48,0,0,1-1.08-.46,1.5,1.5,0,0,1-.41-1.1l.72-16.36a.5.5,0,0,0-.13-.37.51.51,0,0,0-.36-.15h-9.39a.6.6,0,0,0-.58.57l-.72,16.35a1.61,1.61,0,0,1-1.59,1.52Z" style="fill:#184CC3"></path><polygon points="129.22 194.61 103.18 194.61 81.46 310.8 107.49 310.8 129.22 194.61" style="fill:#fff;opacity:0.2"></polygon><polygon points="138.85 194.61 135.78 194.61 114.06 310.8 117.12 310.8 138.85 194.61" style="fill:#fff;opacity:0.30000000000000004"></polygon><path d="M114.23,196.1a.72.72,0,0,1-.71.69.65.65,0,0,1-.65-.69.73.73,0,0,1,.71-.68A.64.64,0,0,1,114.23,196.1Z" style="opacity:0.30000000000000004"></path></g></svg>